<svg width="192" height="192" viewBox="0 0 192 192" fill="none" xmlns="http://www.w3.org/2000/svg">
<rect x="10" y="10" width="171" height="171" rx="34" fill="white"/>
<path d="M118.627 61.8806C112.553 55.7698 104.51 52.4042 95.9814 52.4042C78.3348 52.4042 63.9628 66.7762 63.9628 84.4228V122.003C63.9593 126.664 65.789 131.139 69.0566 134.463C70.6591 136.127 72.5805 137.45 74.706 138.355C76.8315 139.259 79.1175 139.726 81.4275 139.728C85.0532 139.728 88.8973 138.329 92.8523 135.567C94.5423 134.391 96.1185 133.06 97.5605 131.59C108.965 120.473 128 101.898 128 84.4228C128 75.9652 124.673 67.9605 118.627 61.8806ZM116.357 85.8782H110.535V82.9674C110.535 75.745 104.006 69.8689 95.9814 69.8689C87.9567 69.8689 81.4275 75.745 81.4275 82.9674V88.4997C86.4304 87.0734 92.3229 87.2954 93.1179 87.3336C94.7156 87.3481 96.2787 87.8008 97.6369 88.6422C98.9952 89.4836 100.097 90.6815 100.821 92.1055C101.546 93.5295 101.866 95.125 101.746 96.7183C101.627 98.3116 101.073 99.8415 100.144 101.142C100.089 101.216 100.033 101.289 99.971 101.36C96.9601 104.816 93.4217 109.636 92.9742 111.366L92.2338 114.18L86.605 112.699L87.3455 109.885C88.3479 106.075 94.0639 99.2969 95.4702 97.6687C95.7597 97.2297 95.925 96.7205 95.9483 96.1952C95.9717 95.6698 95.8523 95.148 95.6028 94.6851C95.3533 94.2222 94.9831 93.8355 94.5315 93.5661C94.0799 93.2967 93.5637 93.1547 93.0379 93.1552H92.8778C90.9366 93.0496 85.1169 93.1097 81.5766 94.6105L81.4275 94.6742V107.709H75.6059V82.9674C75.6059 72.5341 84.7458 64.0473 95.9814 64.0473C107.217 64.0473 116.357 72.5341 116.357 82.9674V85.8782Z" fill="black"/>
</svg>
