<svg width="512" height="512" viewBox="0 0 512 512" fill="none" xmlns="http://www.w3.org/2000/svg">
<rect x="41" y="57" width="429" height="398" rx="49" fill="white"/>
<path d="M304.095 183.498C291.181 170.507 274.082 163.352 255.95 163.352C218.434 163.352 187.879 193.906 187.879 231.423V311.317C187.872 321.226 191.762 330.741 198.709 337.807C202.116 341.344 206.2 344.158 210.719 346.081C215.238 348.004 220.098 348.997 225.009 349C232.717 349 240.89 346.026 249.298 340.155C252.891 337.655 256.242 334.824 259.307 331.7C283.554 308.065 324.021 268.576 324.021 231.423C324.021 213.442 316.947 196.424 304.095 183.498ZM299.268 234.517H286.892V228.329C286.892 212.974 273.011 200.481 255.95 200.481C238.89 200.481 225.009 212.974 225.009 228.329V240.09C235.645 237.058 248.172 237.53 249.863 237.611C253.259 237.642 256.582 238.604 259.47 240.393C262.358 242.182 264.699 244.729 266.24 247.756C267.78 250.783 268.46 254.175 268.206 257.563C267.952 260.95 266.774 264.203 264.8 266.967C264.684 267.125 264.564 267.28 264.432 267.431C258.031 274.779 250.509 285.025 249.557 288.703L247.983 294.686L236.016 291.538L237.591 285.555C239.722 277.456 251.874 263.045 254.864 259.583C255.479 258.65 255.83 257.567 255.88 256.451C255.93 255.334 255.676 254.224 255.145 253.24C254.615 252.256 253.828 251.434 252.868 250.861C251.908 250.288 250.81 249.987 249.692 249.988H249.352C245.225 249.763 232.853 249.891 225.326 253.082L225.009 253.217V280.929H212.632V228.329C212.632 206.147 232.064 188.105 255.95 188.105C279.837 188.105 299.268 206.147 299.268 228.329V234.517Z" fill="black"/>
</svg>
