<svg width="192" height="192" viewBox="0 0 192 192" fill="none" xmlns="http://www.w3.org/2000/svg">
<g clip-path="url(#clip0_106_12)">
<path d="M0 27C0 12.0883 12.0883 0 27 0H165C179.912 0 192 12.0883 192 27V165C192 179.912 179.912 192 165 192H27C12.0883 192 0 179.912 0 165V27Z" fill="white"/>
<path d="M120.755 58.6315C114.114 51.9517 105.323 48.2727 96 48.2727C76.7102 48.2727 61 63.983 61 83.2727V124.352C60.9962 129.447 62.9962 134.339 66.5682 137.972C68.3199 139.791 70.4202 141.238 72.7436 142.227C75.067 143.215 77.5658 143.726 80.0909 143.727C84.0543 143.727 88.2562 142.198 92.5795 139.179C94.4269 137.894 96.1499 136.438 97.7261 134.832C110.193 122.68 131 102.376 131 83.2727C131 74.0276 127.363 65.2776 120.755 58.6315ZM118.273 84.8636H111.909V81.6818C111.909 73.7869 104.772 67.3636 96 67.3636C87.2281 67.3636 80.0909 73.7869 80.0909 81.6818V87.7293C85.5597 86.1702 92.0009 86.4128 92.8699 86.4545C94.6163 86.4705 96.3249 86.9652 97.8097 87.885C99.2944 88.8047 100.498 90.1142 101.29 91.6708C102.082 93.2274 102.432 94.9714 102.302 96.7131C102.171 98.4547 101.565 100.127 100.55 101.548C100.49 101.63 100.429 101.709 100.361 101.787C97.0699 105.565 93.202 110.833 92.7128 112.724L91.9034 115.801L85.7506 114.182L86.5599 111.106C87.6557 106.941 93.904 99.5318 95.4412 97.752C95.7577 97.2722 95.9383 96.7155 95.9638 96.1413C95.9894 95.567 95.8588 94.9966 95.5862 94.4906C95.3135 93.9845 94.9088 93.5618 94.4151 93.2674C93.9214 92.9729 93.3572 92.8177 92.7824 92.8182H92.6074C90.4855 92.7028 84.1239 92.7685 80.254 94.4091L80.0909 94.4787V108.727H73.7273V81.6818C73.7273 70.277 83.7182 61 96 61C108.282 61 118.273 70.277 118.273 81.6818V84.8636Z" fill="black"/>
</g>
<defs>
<clipPath id="clip0_106_12">
<rect width="192" height="192" fill="white"/>
</clipPath>
</defs>
</svg>
