<svg width="512" height="512" viewBox="0 0 512 512" fill="none" xmlns="http://www.w3.org/2000/svg">
<rect width="512" height="512" fill="white"/>
<path d="M0 27C0 12.0883 12.0883 0 27 0H165C179.912 0 192 12.0883 192 27V165C192 179.912 179.912 192 165 192H27C12.0883 192 0 179.912 0 165V27Z" fill="white"/>
<path d="M336.597 134.561C314.948 112.783 286.284 100.788 255.889 100.788C192.998 100.788 141.778 152.008 141.778 214.899V348.83C141.766 365.442 148.286 381.391 159.932 393.236C165.643 399.166 172.491 403.883 180.066 407.107C187.641 410.331 195.788 411.995 204.02 412C216.942 412 230.642 407.014 244.737 397.172C250.76 392.981 256.378 388.236 261.517 382.999C302.162 343.378 370 277.18 370 214.899C370 184.757 358.142 156.229 336.597 134.561ZM328.505 220.086H307.758V209.712C307.758 183.972 284.488 163.03 255.889 163.03C227.29 163.03 204.02 183.972 204.02 209.712V229.429C221.85 224.346 242.85 225.137 245.684 225.273C251.378 225.325 256.948 226.938 261.789 229.936C266.63 232.935 270.555 237.204 273.137 242.279C275.72 247.354 276.86 253.041 276.434 258.719C276.009 264.397 274.033 269.85 270.723 274.483C270.529 274.749 270.328 275.008 270.107 275.261C259.377 287.58 246.767 304.755 245.172 310.921L242.533 320.951L222.473 315.673L225.111 305.643C228.684 292.067 249.055 267.909 254.067 262.106C255.099 260.542 255.688 258.727 255.771 256.855C255.854 254.982 255.429 253.122 254.54 251.473C253.651 249.823 252.331 248.445 250.722 247.485C249.112 246.525 247.273 246.019 245.398 246.02H244.828C237.91 245.644 217.169 245.858 204.552 251.207L204.02 251.434V297.889H183.273V209.712C183.273 172.529 215.846 142.283 255.889 142.283C295.932 142.283 328.505 172.529 328.505 209.712V220.086Z" fill="black"/>
</svg>
